/* XPM */
static char *dc505b60f96b405a9001c1e61df530eeK41Y2tYayTm4rud2[] = {
/* columns rows colors chars-per-pixel */
"64 64 114 2 ",
"   c #3E1636",
".  c #401637",
"X  c #441639",
"o  c #4C153C",
"O  c #51153F",
"+  c #561542",
"@  c #5B1444",
"#  c #601547",
"$  c #641449",
"%  c #6C144D",
"&  c #71134F",
"*  c #741351",
"=  c #7C1355",
"-  c #841457",
";  c #8A1657",
":  c #841558",
">  c #8D1758",
",  c #8F1858",
"<  c #911857",
"1  c #931958",
"2  c #9C1B59",
"3  c #A41D59",
"4  c #A91E59",
"5  c #AE205A",
"6  c #B3225A",
"7  c #B8255B",
"8  c #BA2A5F",
"9  c #9B2863",
"0  c #8A3068",
"q  c #933871",
"w  c #9A3B72",
"e  c #BA2D61",
"r  c #BB3365",
"t  c #BC3768",
"y  c #BC3B6A",
"u  c #A13C72",
"i  c #BE416E",
"p  c #BF4571",
"a  c #BF4974",
"s  c #C04D76",
"d  c #C04F78",
"f  c #C1547B",
"g  c #C2597E",
"h  c #C35D81",
"j  c #C46486",
"k  c #C56788",
"l  c #C66B8B",
"z  c #C7718F",
"x  c #C77491",
"c  c #C87793",
"v  c #C87A95",
"b  c #CA7E98",
"n  c #CA839B",
"m  c #CB899E",
"M  c #CC8DA2",
"N  c #CD94A6",
"B  c #CE97A8",
"V  c #CF9AAA",
"C  c #CF9EAD",
"Z  c #D292A7",
"A  c #D394A9",
"S  c #D394AA",
"D  c #D397AB",
"F  c #D49AAD",
"G  c #D49CAF",
"H  c #DC99B2",
"J  c #D0A1AF",
"K  c #D0A1B0",
"L  c #D0A2B0",
"P  c #D0A3B0",
"I  c #D0A3B1",
"U  c #D0A5B1",
"Y  c #D1A6B2",
"T  c #D1A6B3",
"R  c #D1A8B4",
"E  c #D2AAB5",
"W  c #D2AAB6",
"Q  c #D2ABB6",
"!  c #D2ACB6",
"~  c #DFA7BB",
"^  c #DFA7BC",
"/  c #D2AFB8",
"(  c #D3AFB9",
")  c #DFA8BC",
"_  c #D3B2BA",
"`  c #D3B2BB",
"'  c #D3B3BC",
"]  c #D3B4BC",
"[  c #DABED0",
"{  c #E1BDC9",
"}  c #ECC6D4",
"|  c #ECC9D6",
" . c #E4C9D8",
".. c #EDCCD9",
"X. c #EFD1DC",
"o. c #F0D3DE",
"O. c #F0D6DF",
"+. c #EFDCE6",
"@. c #F1D7E0",
"#. c #F1DBE3",
"$. c #F2DFE5",
"%. c #F2E0E6",
"&. c #F3E1E7",
"*. c #F1E1E9",
"=. c #F3E3E8",
"-. c #F3E5E9",
";. c #F3E5EA",
":. c #F7EBF0",
">. c #F9ECF1",
",. c #FAF2F5",
"<. c #FAF3F5",
"1. c #FCF8FA",
"2. c #FDFBFC",
"3. c #FFFFFF",
/* pixels */
"_ _ ' _ _ _ _ _ _ ] ' ' / ' ' ' _ _ _ ' ' / ` ` ` ` ` ` _ _ ' ' _ ' ' ' ' ' ' ' ' ' ' ' ' ' _ ] ] ' ' ] ] ' ' ' ' ] ] ' ' ' ' ] ",
"/ / / / _ ! ! _ / / / / / / / / / _ / / ( ` ( / ` ` / / / _ _ / / _ / _ _ / / _ / / _ _ / _ / _ ' _ ' _ _ _ _ _ _ _ _ _ _ _ _ _ ",
"W ! W W ! ! ! ! W ! ! ! W W W W W / / W W / W ! ! ! ! ! ! ! ! ! ! W ! ! / W / W W _ / ! W / W ! W ! W / ! W ! ! ! W ! ! / ! ! / ",
"! T T ! T W T T W U T W T / T W T W T W W T W W W W T W U ! W ! W ! W U W T ! W T ! W W W W ! W ! W ! W W ! ! W W ! ! W W W ! W ",
"I I J U P U J U P P P P T P P T P P P I P U P T T T Y Y P U U U U P U U U I T I P U U T T T T T U T T T T T U W U T T T P T U R ",
"J J J J J J J J K K K P P P K K P P I I P J J I J J P J J J J J P P P G P P I I P K P P K P P P P P P C J U J U P P P P P P P P ",
"G C C C C C C C C C C C C C C C C C C C C C C C G C C C J C C C C C C C C C G C C C C P C C C C C C C C J C J C C P P C K C P C ",
"V V V V V V V V B C V V V V V V V V V C V V V V V V C V V C V C V C C C B C C C V C V V V C C V C C C C C V C V C C V C V C V C ",
"B N N N N B N B N B N B B B B B B B B B B B B B B N V B N V B B B V B N B B B B B B B V B B B B B V V B B B B N N B B V B B B V ",
"N N N N N N N N N N N N N N N N N N N N N N N N N N N N N N N N N N N N N B N N N B N N N B B B N N N N B B B N B B N N B N B B ",
"N M M M N M M M M M M M M M M M { -.-.-.=.-.-.-.-.-.-.-.-.-.=.-.-.-.-.-.-.-.-.-.-.-.-.-.-.-.-.=.B N N N N M M N N M N N N N N M ",
"M m M M M M M n M M M M M M M M -.3.3.3.3.3.3.3.3.3.3.3.3.3.3.3.3.3.3.3.3.3.3.3.3.3.3.3.3.3.3.3.G M M M M M M M M M M M M M M M ",
"m m m m M n M M M n M n M M M n =.3.3.3.3.3.3.3.3.3.3.3.3.3.3.3.3.3.3.3.3.3.3.3.3.3.3.3.3.3.3.3.F m m m m m m m n M n M M n M M ",
"n n n n n n n n n n n M b n n n =.3.3.3.3.3.3.3.3.3.3.3.3.3.3.3.3.3.3.3.3.3.3.3.3.3.3.3.3.3.3.3.G m m m M n m m M n M M n M M b ",
"n b n n n b n b v n b n n b b n =.3.3.3.3.3.3.3.3.3.3.3.3.3.3.3.3.3.3.3.3.3.3.3.3.3.3.3.3.3.3.3.A n n n n n n n b n n n n n b n ",
"b b b b b b b b b b b b b b b b %.3.3.3.3.3.3.3.3.3.3.3.3.3.3.3.3.3.3.3.3.3.3.3.3.3.3.3.3.3.3.3.N b b b b n b b n b b b n b b b ",
"x v v v x v v v v n x v v v n x $.2.3.3.3.3.1.A A A A A A A A A S S S S S S A A Z D Z D A A A Z v v v b b b b b b v b v b v v b ",
"z v v v x v x v x v x v v x x v %.3.3.3.3.3.<.c c c c c c c c c c c c c c c c c c c c c c c c c v v c v c c v x v v v v v v v v ",
"z z z z z z x z z z x z x z z z %.3.3.3.3.3.<.z v c x x x c x x c z x x c x x x c x x x c c x x x x x x x x x x x x v c c c x z ",
"z z z z z z z z z z z z z z z z $.2.3.3.3.3.<.z l x l l x l x z z z x x l x z x x x x x l x x x x x x x x x l x l x x l z x z z ",
"l l l l l l l l l l l l z l l l #.3.3.3.3.3.<.l l l l l l l l l l l l z l l l l l l l l l l l l l l l l l x l l l z z z z l z l ",
"k l k k l l l k k l l k k k l k #.3.3.3.3.3.<.l l l l l l l l l l l l l l l l l l k l l l l l l l l l l l l l l k l k l l l l l ",
"j k j k j j j k k k j j j j j k #.3.3.3.3.3.<.j j j k j j j j l k j j j k j j j k k k k j k k k j k j k j k j l k k k k k k k k ",
"h j h j j j h j g j j j j j j j #.3.3.3.3.3.<.j j j j j j j j j j j j j j j j j j j j j j j j j j j j j j j j k j j j j j j j j ",
"g h h h j h h j h h j h j g j j #.3.3.3.3.3.>.h h h h h h h h h h j h h j j j f h j h h j h h h h j h h h h h j h j j h h j h j ",
"g h g g h j a j g h g g g g g g #.3.3.3.3.3.<.h h h h h h h h h f h h h f h f h h h g h g h h h h h h h h h h j j s h j h h h h ",
"a h a j j a a g g g a j f g f f @.3.3.3.3.3.<.f f h f f h f f f h f f f f h h f h f g g g g g h a h j h a j a j p j f f g j p j ",
"h a h a a g g j a g a f f f f f @.3.3.3.3.3.<.f f f f f f f f f f f f h f f f h f f f f f f f f a g a h h a h h j s s j a a j a ",
"a a a a a h a a a g d d d d d d @.3.3.3.3.3.2.^ ^ ^ ~ ^ ~ ^ ^ ^ ~ ) ^ ^ ^ ~ ~ ~ ) ) ) ) ) ^ b a g h a a a h a a a a a j g h a h ",
"h a a a a a a a a a d d s d s s O.3.3.3.3.3.3.3.3.3.3.3.3.3.3.3.3.3.3.3.3.3.3.3.3.3.3.3.3.3...a a a a g a h a h a h a a a a a a ",
"a a a a a a a a a a a a a a p s O.3.3.3.3.3.3.3.3.3.3.3.3.3.3.3.3.3.3.3.3.3.3.3.3.3.3.3.3.3...a a a a a a a a a a a a a a a a a ",
"a a a i a a a a a a a a i s p p o.3.3.3.3.3.3.3.3.3.3.3.3.3.3.3.3.3.3.3.3.3.3.3.3.3.3.3.3.3...a a a a a a a a a a a a a a a a a ",
"i i i i i i i i i i i i t s i y o.3.3.3.3.3.3.3.3.3.3.3.3.3.3.3.3.3.3.3.3.3.3.3.3.3.3.3.3.3.} s y y s y s y s i s t s i i s i i ",
"i i y y i y i y y i i i y i y s o.3.3.3.3.3.3.3.3.3.3.3.3.3.3.3.3.3.3.3.3.3.3.3.3.3.3.3.3.3.} i y s i i t s t i i i i i y i i i ",
"t y y y y y y y y y y y y y t y X.3.3.3.3.3.1.H H H H H H H H H H H H H H H H H H H H H H H j i y y t y y i y y t i i i y i t i ",
"t t t t t y t t y y t t t t t t X.3.3.3.3.3.>.t t t t t t t t t t t t t t t t t t t y t t t t t t y t y y t y t t t t t t t t t ",
"r t r r r r r r r r r r r r r r X.3.3.3.3.3.>.t t r r r t t r r t r r t t t t r r t t t t t t t t t t r t r t r t r r r r t r t ",
"e e r e r r r r e r e r r r r r ..3.3.3.3.3.>.r r r r r e e e t e r e r r r r r r r r e r e r e r r r r r r r r r r r r r r r r ",
"8 8 8 e 8 8 8 e e 8 8 e 8 e e 8 ..3.3.3.3.3.>.e e e 8 8 e e e e e e e r e e e e e e e e e e e e e e e e 8 e r e 8 r r r e r e e ",
"8 8 8 8 8 8 8 8 8 8 8 8 8 8 8 7 X.3.3.3.3.3.>.8 8 8 8 8 e 8 8 8 8 8 8 8 8 8 8 8 8 8 8 e 8 e e e 8 e 8 e 8 8 8 e 8 8 8 8 8 e 8 e ",
"6 7 7 7 7 7 7 7 7 7 7 7 7 7 7 7 X.3.3.3.3.3.>.7 7 7 7 7 7 7 7 7 7 7 7 7 7 7 7 7 7 7 7 7 7 7 7 7 7 8 8 7 7 8 7 7 8 8 7 8 7 7 7 8 ",
"7 6 6 7 7 7 7 6 7 7 7 6 6 7 7 7 | 3.3.3.3.3.>.7 6 7 7 7 7 7 6 6 7 7 7 7 7 7 7 7 7 7 7 7 7 6 7 7 7 6 7 7 7 7 7 7 7 7 7 6 7 7 7 7 ",
"5 5 6 5 5 5 5 6 6 6 6 6 5 6 6 6 ..3.3.3.3.3.>.5 6 6 6 6 6 6 6 6 5 7 6 6 6 6 6 6 6 6 6 6 6 6 6 6 6 6 6 6 6 6 5 5 6 6 6 6 6 6 6 7 ",
"5 5 5 5 5 5 5 5 5 4 4 4 4 5 4 5 ..3.3.3.3.3.>.4 5 5 4 4 6 4 4 6 4 5 5 4 5 5 4 5 6 5 4 6 4 6 6 5 4 6 6 5 5 5 5 5 4 6 6 6 5 6 6 4 ",
"3 3 3 3 3 3 3 5 3 4 4 3 3 3 4 4 ..3.3.3.3.3.:.4 3 4 4 3 4 3 4 3 4 4 4 4 4 4 4 4 4 4 4 4 4 4 4 4 4 4 4 4 3 5 5 5 3 5 5 3 4 4 5 4 ",
"3 3 2 5 2 5 2 2 2 3 3 3 3 3 3 3 ..3.3.3.3.3.:.3 3 3 3 3 3 3 3 3 3 3 3 3 3 3 3 3 3 3 3 3 3 3 3 3 3 3 3 3 3 5 2 5 3 3 3 5 3 3 3 3 ",
"2 2 2 2 2 2 2 2 2 2 2 2 2 2 2 2  .3.3.3.3.3.-.2 2 2 2 2 2 2 2 2 2 2 3 2 2 2 3 2 2 2 2 2 2 2 2 2 2 2 3 2 2 2 2 2 2 3 2 2 2 2 3 3 ",
"1 1 1 2 1 2 1 2 2 1 2 1 2 2 1 2  .3.3.3.3.3.:.2 2 1 2 2 2 2 2 1 2 2 1 2 2 1 2 1 2 2 2 2 2 2 2 2 2 2 2 2 2 2 2 2 2 2 2 2 2 2 2 2 ",
"< < < < > < < < , < < < < < < <  .3.3.3.3.3.3.=.$.=.=.+.=.+.=.=.*.*.*.*.=.+.=.=.*.*.*.*.=.+.=.=.$.9 2 < 1 1 1 1 1 1 < 1 1 1 1 1 ",
"< ; ; < > > , > > , > > , > > ,  .2.3.3.3.3.3.3.3.3.3.3.3.3.3.3.3.3.3.3.3.3.3.3.3.3.3.3.3.3.3.3.2.u > > , < < < < < < < < < 1 < ",
"- ; ; ; ; - ; ; : - ; - : : : ;  .2.3.3.3.3.3.3.3.3.3.3.3.3.3.3.3.3.3.3.3.3.3.3.3.3.3.3.3.3.3.3.3.w ; ; ; ; ; ; ; ; ; > ; , > ; ",
"- - - = - - = - - - - : : : : :  .3.3.3.3.3.3.3.3.3.3.3.3.3.3.3.3.3.3.3.3.3.3.3.3.3.3.3.3.3.3.3.3.w - - - : - - : : : : : : : : ",
"= = = = = = = = = = = = = = = =  .3.3.3.3.3.3.3.3.3.3.3.3.3.3.3.3.3.3.3.3.3.3.3.3.3.3.3.3.3.3.3.3.q = - = = = - = = : = : = = : ",
"& & = * = * = * = * = * * = * = [ 3.3.3.3.3.3.3.3.3.3.3.3.3.3.3.3.3.3.3.3.3.3.3.3.3.3.3.3.3.3.3.3.0 = = = = = = = = = = = = = = ",
"& & & & % & & & % * * & & & * & & * & & * * * * * * % * * * * * * * * * * * * * * * * * * & * * & & & * & * * * * * * * * * * * ",
"% % % % % % % % % % % % % % % % % % % % % % % % % % % % % % % % % % % % % % % % % % % % & % & & % & & & & % & & & & % & & % & & ",
"$ $ $ $ $ $ $ $ $ $ $ $ $ $ $ % $ $ $ $ $ $ $ $ $ $ $ % $ $ $ $ $ $ % $ $ $ $ % $ % $ % $ % % $ $ % $ % % % $ % $ % % % $ % % % ",
"# # # @ @ # # # $ @ $ @ $ @ $ @ $ @ # # # $ # # $ # # @ $ $ $ $ $ $ @ $ $ $ @ $ $ # # # # # $ # # $ # # # # # # # # $ # # # # # ",
"@ @ + @ @ @ + @ @ + @ + @ + @ @ @ @ @ @ @ @ @ @ @ @ @ @ @ @ @ @ @ @ @ @ @ @ @ @ @ @ @ + @ @ @ @ @ @ @ @ @ @ + + @ @ @ @ @ @ @ @ ",
"+ O + + + + + + + + + + + + + + + + + + + + + + + + + + + + + + + + + + + + + @ + + + + @ + @ + + @ + @ + @ + + @ @ @ + @ @ @ @ ",
"o o o O o o o o o o o o o o + o o o O o O o o O o o + o o + o o o o o + o o + o + + + + + + + + + + + o + X + + X + + + + + + + ",
"o X o o o o o o o o o o o X X o o o o o o o o o o o o o o o o o o o o o o o o o X + X X X X . + + X + X + + X + X + X X + X X X ",
". . . . . . . . . X . . X X X . X . X . . X . X . X . X X X X X X X X X X X X X X X X X X X X X X X   X X X X X X X X + X X X X ",
"                                                .           .     .   . .     .   .           X .       X   X     X   X X   X   "
};
