/* XPM */
static char *_00772c1f66847e5c6a4fc8d25734d1cE9znRRvag3gnPRM4[] = {
/* columns rows colors chars-per-pixel */
"64 64 139 2 ",
"   c #3E1636",
".  c #401637",
"X  c #441639",
"o  c #4C153C",
"O  c #51153F",
"+  c #561542",
"@  c #5B1444",
"#  c #601547",
"$  c #641449",
"%  c #6C144D",
"&  c #71134F",
"*  c #741351",
"=  c #7C1355",
"-  c #841457",
";  c #891657",
":  c #841558",
">  c #8E1758",
",  c #8F1858",
"<  c #911757",
"1  c #911857",
"2  c #931858",
"3  c #9C1B59",
"4  c #A41D59",
"5  c #A91E59",
"6  c #AE205A",
"7  c #B3225A",
"8  c #B8255B",
"9  c #B92A5F",
"0  c #BA2D61",
"q  c #BB3365",
"w  c #BC3768",
"e  c #BD3B6A",
"r  c #934075",
"t  c #BE416E",
"y  c #AD487A",
"u  c #BF4571",
"i  c #BF4974",
"p  c #BA4C7B",
"a  c #C04D76",
"s  c #C04F78",
"d  c #C1547B",
"f  c #C2597E",
"g  c #B2799D",
"h  c #C35D81",
"j  c #C95982",
"k  c #C46485",
"l  c #C56788",
"z  c #CB6389",
"x  c #C66B8B",
"c  c #CC6A8E",
"v  c #C7718F",
"b  c #CE6F91",
"n  c #C77491",
"m  c #C97793",
"M  c #C87A95",
"N  c #CA7F98",
"B  c #BE86A9",
"V  c #CA839B",
"C  c #CB899F",
"Z  c #D1849F",
"A  c #CC8DA2",
"S  c #C287A9",
"D  c #C688A9",
"F  c #CC8AAA",
"G  c #D287A2",
"H  c #D28AA3",
"J  c #D48CAA",
"K  c #DB8FAB",
"L  c #CD93A6",
"P  c #CE97A8",
"I  c #CF9CAC",
"U  c #D391A8",
"Y  c #DC93AE",
"T  c #D599AD",
"R  c #CD9FBB",
"E  c #DD96B0",
"W  c #DE9CB4",
"Q  c #D0A1AF",
"!  c #D0A4B1",
"~  c #DEA0B7",
"^  c #D2A9B5",
"/  c #D2ABB6",
"(  c #D2ACB6",
")  c #D2ACB7",
"_  c #D2ADB7",
"`  c #D4A2BB",
"'  c #DEA3BA",
"]  c #DFA5BA",
"[  c #D2AFB8",
"{  c #D3AFB9",
"}  c #D9AAB9",
"|  c #D3B2BA",
" . c #D3B2BB",
".. c #D3B3BB",
"X. c #D3B3BC",
"o. c #D3B4BC",
"O. c #E0A4BA",
"+. c #E0A9BC",
"@. c #E1A9BD",
"#. c #E1ABBE",
"$. c #E0ACBF",
"%. c #E4ADC1",
"&. c #E2B0C2",
"*. c #E2B2C3",
"=. c #E5B2C5",
"-. c #E3B5C5",
";. c #E6B7C8",
":. c #E4BAC9",
">. c #E4BDCB",
",. c #E9BCCC",
"<. c #E5C3CF",
"1. c #E9C1CF",
"2. c #E6C6D1",
"3. c #EAC2D2",
"4. c #EAC6D2",
"5. c #E7CBD4",
"6. c #E9C8D3",
"7. c #E9CDD6",
"8. c #EBD1D9",
"9. c #EFDDE3",
"0. c #EEE2EA",
"q. c #F3E5E9",
"w. c #F3E5EA",
"e. c #F5E9EF",
"r. c #F8EAEF",
"t. c #F5EAF0",
"y. c #F9EDF1",
"u. c #F9EEF2",
"i. c #F9F0F3",
"p. c #FAF1F4",
"a. c #FAF3F5",
"s. c #FBF3F5",
"d. c #FAF3F6",
"f. c #FBF3F6",
"g. c #FAF4F6",
"h. c #FBF4F7",
"j. c #FBF5F7",
"k. c #FFFEFF",
"l. c #FFFFFF",
/* pixels */
"| | X.| | | | | | | | X.| X.| X.| | | X.X.|  . . . . . .| | | | | | | | | X.| o.| | X.| X.X.X.| X.X.X.X.| o.o.o.o.o.o.o.o.X.X.o.",
"[ [ [ [ | _ | [ [ [ [ [ [ [ [ [ [ _ [ [ [ | [ [  .[ [ [ | _ | | [ | | [ | [ | X.| | | | | | | | | | | | [ [ | X.| | | | | | | | ",
"/ / / / ^ ^ ^ ^ ^ ^ _ / / / / / / / / / _ / / / / / / _ _ ( _ _ ( ( ( ( [ ^ ^ [ ^ _ ( ( ) ^ [ / / / ) ) _ / / / ( ( [ / / / _ / ",
"^ ^ / / ^ ^ ^ ^ ( ^ ! / ^ ^ / / ^ ^ / / / / ^ / ^ / / / ^ ^ ^ ^ ( ^ ( ^ ^ ^ ^ ( ( ( ^ ^ ^ ) / / / / / / / / / / ^ ( ^ / / / / [ ",
"T ! ^ Q ^ Q ^ Q ! ! ! ! ! ! ! ! ! ! _ ! ! ! ! ! Q ^ ! ( ! ! ! ! ! ^ ! ^ ! ! ! ! ! ! ! ! ! ! ! ^ ! ! ! ! / ! ! ^ / ! ! ! ! ! ! / ",
"Q ! Q Q Q Q Q Q ! I ! ! T I ! ! ! ! I ! Q ! ! ! Q Q ! ! Q ! ! ! ! I ! ! ! ! ! ! Q ! ! ! ! Q ! ! ! ! ! ! ! ! ! ! ! ! ! ! ! ! ! ! ",
"I I I I I I I I I I I I ! I I I I I I Q I I Q I T I I I I I I I I I I I I I I I Q Q I Q I Q Q I I ! I I I ! Q I I I ! I I ! I I ",
"P I I P P I I I P I I I P I P I P I I I P I I P P T I I I I I I I I I I I I I I P I I I I I I I I I I I I I I I I I I I I I I I ",
"L P P P P P L L P P L P P P P P L L P P P P L P P P P L P T P P P P P P P P P P P P P P P P P P P P P P P P P P I P P P P P P P ",
"L L L L L L L L L L L L L L L L L L L L L L L L L L L L L L L L L L L P L P P L P L L P L P P L P P L L P L P L P P L P P P P P ",
"A A A A A L L A L A A A A A A 5.q.q.q.w.w.9.A L L L L L L L L A L A L A A A L A L A L } w.w.w.9.q.5.L L L L L L L A L L A L L L ",
"A A C A A A A A A A A A A A A d.l.l.l.l.l.l.8.A C C C L C C C A A A A A A A A A A A A 2.l.l.l.k.l.p.A A A A A A A A A A A A A A ",
"C C C C V C C C C C C C A C C d.l.l.l.l.l.l.l.! C C C C C C C C C A C C C C C C A G A 2.l.l.k.k.l.g.A C A A V A A A A A A C C A ",
"V V V V V V V V V V C V V V C d.l.l.l.l.l.l.l.d.C V V C C V V C C V V C C C V C V V V 2.l.l.k.k.l.p.C C V V C V V V V V A C C V ",
"M V V V V V N V N V V N V N N d.l.l.l.l.l.l.l.l.7.V V V V V V V N V V V N V N V V V V <.k.k.k.k.l.p.V V V V V V V V V V V V V V ",
"V M V M N N M N N M N M N N N d.l.l.l.l.l.l.l.l.l.T V M V M M V N N M N N N N N N N N <.k.k.k.k.l.p.V M N V N N N V V N N N N M ",
"M M M M M M M M M M M M M M M a.l.l.l.l.l.l.l.l.l.d.m M M M M M M M M M M M M M M M M >.l.l.l.l.l.d.M M M M M M M V M M V M M M ",
"n n n M n M M n m n m m M n m a.l.l.l.l.l.l.l.l.l.l.7.M m M m m M n M m n M M M M M n >.l.l.l.l.l.u.M M M M M M M M M M M M M M ",
"x x n n n x n n n n v m n n n a.l.l.l.l.l.l.l.l.l.l.l.U n n n n n n n n n n n n n n n >.l.l.l.l.l.p.n n M v n n v n M v v M v n ",
"n n n x n n n x n x v x x n x a.l.l.l.l.l.l.l.l.l.l.l.d.v v v v v n v v n n v v v n v :.l.l.l.l.l.p.v v v v v v v v v v v v v n ",
"x x x x x x x x x x x x x x x s.l.l.l.l.l.l.l.l.l.l.l.l.6.x x x x x x v x x x x x x x :.l.l.l.l.l.i.v x x v x v x v v v v x v x ",
"l x x x l l l x x l l x l x l p.l.l.l.l.l.p.l.l.l.l.l.l.l.H x x l x x x x x x x x x x :.l.l.l.l.l.p.l x l x x x l x l x x x x x ",
"j x l f l x g f l l l l l k l p.l.l.l.l.l.*.d.l.l.l.l.l.l.d.k l k l k k k l k x k k k -.l.l.l.l.l.u.k l l l l l l l l l l l l l ",
"l f l z f f k f k l f l f k k d.l.l.l.l.l.$.G l.l.l.l.l.l.l.4.k k k k k k k k k k k k -.l.l.l.l.l.u.k k k k k k k k k k k k k k ",
"f f l f f f f f k k f k f f k a.l.l.l.l.l.$.h 4.l.l.l.l.l.l.l.Z k h h h h h k h k f k *.l.l.l.l.l.a.f k f x f l g p z f l l f l ",
"f f f f f f f k f f f f f f f a.l.l.l.l.l.+.h h d.l.l.l.l.l.l.d.h f h f h h f h f f f %.l.l.l.l.l.a.f f f f f f f f f f f f f f ",
"d f f f f f f d f f f f d f f p.l.l.l.l.l.+.f d M l.l.l.l.l.l.l.4.f f f f f f f f f h %.l.l.l.l.l.u.f f f f f f f f f f f f f f ",
"d f f f d d i a d d d f d d d p.l.l.l.l.l.+.d d d 1.l.l.l.l.l.l.l.N d f d f d f d f f } l.l.l.l.l.r.d f f f d d f d d f f f f f ",
"i s a a a a a a a a a a a a a d.l.l.l.l.l.] d a d d s.l.l.l.l.l.l.a.d a i d a d d s s %.l.l.l.l.l.u.a d d d d d a a a a d d s f ",
"a a a a a a a a a a a a a a a r.l.l.l.l.l.] a a a a b l.l.l.l.l.l.l.,.a s a a a a s s +.l.l.l.l.l.u.a a a a i a a a a a a s a a ",
"a e a a a a a a a a e e a a t r.l.l.l.l.l.~ i i a a a :.l.l.l.l.l.l.l.m u a a a i i i +.l.l.l.l.l.u.i i i i i a a a a a a a a a ",
"a a a e a e e a a a a a a a a w.l.l.l.l.l.~ u u a t e a d.l.l.l.l.l.l.u.a t a u u i u O.l.l.l.l.l.u.u i i u u u u u a e a a a a ",
"t t t t e a e a e s e e e a a y.l.l.l.l.l.~ t u u u u t c l.l.l.l.l.l.l.,.a t t u t t O.l.l.l.l.l.u.t t t t u t u t a e e a e a ",
"e t e e e e e e e e e a e e e y.l.l.l.l.l.W e e e e e e e ;.l.l.l.l.l.l.l.n t e t e t O.l.l.l.l.l.u.e t t t t t e t e a a e e e ",
"e e e e e e e e e e e e e e e y.l.l.l.l.l.E e e e e e e e e s.l.l.l.l.l.l.d.e e e e e ' l.l.l.l.l.t.e e e e e e e e e e e e e e ",
"w w w e q w q e e q q w e q w u.l.l.l.l.l.E w w w e e w e e j l.l.l.l.l.l.l.,.w e w e O.l.l.l.l.l.u.e e e w e w e e e e e e w e ",
"q q q q q q q q q q q q q q q u.l.l.l.l.l.E q w q q q q q q w =.l.l.l.l.l.l.l.c q q q W l.l.l.l.l.t.q q w w w q q q q q q q q w ",
"q 0 0 q q q q 0 q 0 q q q q q r.l.l.l.l.l.Y q 0 q q q q q q 0 w u.l.l.l.l.l.l.d.q q q W l.l.l.l.l.t.q q q q q q q q q q q q q q ",
"9 0 0 0 9 9 0 0 9 0 9 0 0 0 9 t.l.l.l.l.l.Y 0 0 0 0 0 0 0 0 0 0 j l.l.l.l.l.l.l.,.0 0 W l.l.l.l.l.r.0 0 9 q 9 q q q 0 q 0 q q 0 ",
"9 9 9 9 9 9 9 9 9 9 9 9 9 9 9 u.l.l.l.l.l.Y 0 9 9 9 9 9 8 0 8 8 9 %.l.l.l.l.l.l.l.z 0 E l.l.l.l.l.r.9 0 9 0 9 0 9 9 0 0 9 9 0 9 ",
"8 8 8 8 8 8 8 8 8 8 8 8 8 8 8 r.l.l.l.l.l.K 8 8 8 8 8 8 8 8 8 8 8 8 u.l.l.l.l.l.l.d.0 E l.l.l.l.l.r.8 9 8 8 8 9 8 9 8 8 8 8 9 9 ",
"7 7 8 7 7 8 7 7 7 7 8 8 7 8 8 t.l.l.l.l.l.K 8 8 8 7 7 8 8 8 8 7 8 8 d l.l.l.l.l.l.l.;.E l.l.l.l.l.r.8 8 8 8 8 8 8 8 8 8 8 8 8 8 ",
"7 7 6 7 7 7 7 7 7 7 7 7 7 7 7 t.l.l.l.l.l.J 7 7 7 7 7 7 7 7 7 7 7 7 7 +.l.l.l.l.l.l.l.3.l.l.l.l.l.r.7 7 7 7 7 7 7 7 7 7 7 7 7 7 ",
"6 6 5 6 5 6 5 6 5 7 5 5 5 5 7 r.l.l.l.l.l.K 5 5 7 5 7 5 5 7 5 6 5 7 5 7 t.l.l.l.l.l.l.l.l.l.l.l.l.r.6 7 6 6 6 6 7 5 7 7 6 7 6 7 ",
"4 6 4 5 5 4 5 5 4 5 4 4 5 4 4 t.l.l.l.l.l.J 4 4 4 4 4 4 5 5 4 5 5 5 4 5 p l.l.l.l.l.l.l.l.l.l.l.l.r.4 5 4 6 4 4 4 6 6 6 5 5 5 6 ",
"3 4 3 4 4 4 4 3 3 4 4 4 4 4 4 t.l.l.l.l.l.J 4 4 4 4 4 4 4 4 4 4 4 4 4 4 4 ' l.l.l.l.l.l.l.l.l.l.l.r.4 4 4 6 4 6 4 4 4 4 4 4 4 4 ",
"3 3 3 3 3 3 3 3 3 3 3 3 3 3 3 r.l.l.l.l.l.F 3 3 3 3 4 3 3 3 3 3 3 3 3 3 3 4 t.l.l.l.l.l.l.l.l.l.l.r.3 4 3 3 3 3 3 4 3 3 4 3 4 3 ",
"3 2 3 2 3 2 3 2 3 3 2 2 3 3 3 t.l.l.l.l.l.D 3 3 3 3 2 2 3 3 3 3 3 3 3 3 3 2 y l.l.l.l.l.l.l.l.l.l.e.3 3 3 3 3 3 3 3 3 3 3 3 3 3 ",
"1 1 1 1 1 , , 1 , 1 1 1 1 1 1 t.l.l.l.l.l.S , 2 2 2 2 2 < < < 2 2 2 2 2 2 2 2 ` l.l.l.l.l.l.l.l.l.e.< 1 3 1 1 3 , 1 3 1 1 3 1 1 ",
"; 1 ; ; > > > > > , > > > , > t.l.l.l.l.l.S > > , > > > > > < < > > > , > , > , t.l.l.l.l.l.l.l.l.e.> > , , , , > 1 , 1 , , , 1 ",
"; : ; ; ; - ; : : ; ; : : : : t.l.l.l.l.l.S ; - ; : ; ; : > > : ; ; ; ; ; ; ; ; r l.l.l.l.l.l.l.l.e.; ; > : > > ; > ; > ; > ; ; ",
"- : = : - : : : - - = : : : : t.l.l.l.l.l.B - : - - - - - - - : - : - : - : : : ; R l.l.l.l.l.l.l.e.; : : : : : : : : : : : ; : ",
"= = = = = = = = = = = = = = = t.l.l.l.l.l.B = = = = = = = - = = = = = - = = = = = = t.l.l.l.l.l.l.e.= = = = = = = : = = : = : = ",
"* * * = * = * = = * = * = * = 0.l.l.l.l.l.g = = = = = * * = * = = = * = = = = = = = r l.l.l.l.l.l.9.= = = = = = = = = = = = = = ",
"* % * % * % * % % * * * % & & * & * & & & * & & & & & & & & & * & & & * * * * * * * * & * * * * & * * * = * * * * * * * * * * * ",
"% % % % % % % % % % % % % % % % % % % % % % % & & % & % & & % % % % & & % % % & % % % % % % & & % & % & % & & % & & & % & & & & ",
"$ $ $ $ $ $ $ $ $ $ $ $ $ $ $ $ $ $ $ $ $ $ $ $ $ % $ $ $ % $ $ $ % % $ % $ % $ $ $ % % $ % % $ $ % $ % $ % % $ $ % % % $ % % $ ",
"@ $ # @ @ $ $ @ $ @ $ @ @ $ @ $ $ @ $ # # $ $ @ $ # # # # $ # # # # # # # # $ # # $ # # @ $ # $ # $ # @ # # # @ # # # # # # # $ ",
"@ @ + + @ @ + @ @ @ + @ @ @ @ @ @ @ @ @ @ @ @ @ @ @ @ @ @ @ @ @ @ @ @ @ @ @ @ @ @ @ @ + @ @ @ @ @ @ @ @ @ @ @ @ @ @ @ @ @ @ @ @ ",
"+ + + + + + + + + + + + + + + + + + + + + + + + + + + + + + + + + + + + @ + + + + + + + @ + @ + @ @ @ @ @ @ + + @ @ @ @ @ @ @ @ ",
"o o o o o o O o o o o + o o + o o O O o O o o o o o o O o O o O o O O o o + o + + + + + + + X + + + X + + X + + X + + + + + + + ",
"X o o o X o o o o o X X X o X o o X X o o o o o o o o o o o o o o o o o o o X o X + X X X X + + X + + X + + X + + + X X + X X X ",
". . . .     X . X X   X X X X X X X X X X . X X X X X X X X X X X X X X X X X X X X X X   X X X X X   X X X X X   X X + X X X X ",
"                                                          .     .   .   .   .     X         X   X           X           X X   X "
};
