/* XPM */
static char *_209fde747ae493ef468a18ade0e4d6fifXwTi5p2SI778r3[] = {
/* columns rows colors chars-per-pixel */
"64 64 154 2 ",
"   c #3E1636",
".  c #401637",
"X  c #441639",
"o  c #4C153C",
"O  c #51153F",
"+  c #561542",
"@  c #5B1444",
"#  c #601547",
"$  c #641449",
"%  c #6C144D",
"&  c #71134F",
"*  c #741351",
"=  c #7C1355",
"-  c #841457",
";  c #8A1657",
":  c #841558",
">  c #8D1758",
",  c #831A5B",
"<  c #8F1858",
"1  c #911757",
"2  c #911857",
"3  c #931958",
"4  c #9C1B59",
"5  c #A41D59",
"6  c #A91E59",
"7  c #AE205A",
"8  c #B3225A",
"9  c #B8255B",
"0  c #BA2A5F",
"q  c #822C63",
"w  c #8E2967",
"e  c #952864",
"r  c #9B2A65",
"t  c #843166",
"y  c #8B336B",
"u  c #98346D",
"i  c #A12460",
"p  c #B72B61",
"a  c #BA2D61",
"s  c #BB3365",
"d  c #BC3768",
"f  c #BC3B6A",
"g  c #BE416E",
"h  c #A64075",
"j  c #AF4275",
"k  c #A9477A",
"l  c #BF4571",
"z  c #BF4974",
"x  c #C14572",
"c  c #C04D77",
"v  c #C04F78",
"b  c #C1547B",
"n  c #C2597E",
"m  c #A35786",
"M  c #A25E89",
"N  c #B5608C",
"B  c #B46A94",
"V  c #BA6C95",
"C  c #C35D81",
"Z  c #C46486",
"A  c #C56788",
"S  c #CB658A",
"D  c #C66B8B",
"F  c #CC6A8E",
"G  c #C7718F",
"H  c #C26890",
"J  c #C77491",
"K  c #C87793",
"L  c #C87A95",
"P  c #C4759A",
"I  c #CA779B",
"U  c #C6789C",
"Y  c #CA7E98",
"T  c #D07194",
"R  c #D27A9B",
"E  c #B685A4",
"W  c #CA839B",
"Q  c #CB899F",
"!  c #C185A7",
"~  c #CC8DA2",
"^  c #C98BAB",
"/  c #D384A0",
"(  c #D38CA5",
")  c #CD93A6",
"_  c #CE97A8",
"`  c #CF9CAC",
"'  c #D197AA",
"]  c #D39BAD",
"[  c #D49AB5",
"{  c #DC9FB5",
"}  c #D89FB9",
"|  c #D0A1AF",
" . c #C6A0B8",
".. c #CAA6BD",
"X. c #D0A4B1",
"o. c #DCA1B6",
"O. c #D2ABB6",
"+. c #DCA5B8",
"@. c #D3AFB9",
"#. c #DAABBA",
"$. c #D3B0B9",
"%. c #D3B2BA",
"&. c #D3B2BB",
"*. c #D3B3BB",
"=. c #D3B4BC",
"-. c #DDB1BF",
";. c #E2A7BD",
":. c #E2ACBF",
">. c #DBAEC4",
",. c #DFB3C2",
"<. c #DFB9C5",
"1. c #D5B6CA",
"2. c #DEB7CB",
"3. c #D6B8CB",
"4. c #E1B2C3",
"5. c #E4B4C5",
"6. c #E6B7C8",
"7. c #E6BCCB",
"8. c #E8BCCC",
"9. c #DAC1D1",
"0. c #DFC9D7",
"q. c #E3C3CD",
"w. c #E8C2CF",
"e. c #E7C4D0",
"r. c #EBC3D2",
"t. c #E9C6D2",
"y. c #EAC9D6",
"u. c #E9CCD5",
"i. c #E3CAD9",
"p. c #EFD0DC",
"a. c #EED5DE",
"s. c #F1D2DE",
"d. c #E7D6E1",
"f. c #EDD7E2",
"g. c #EEDAE2",
"h. c #F1DAE2",
"j. c #F3DDE6",
"k. c #F4E4EA",
"l. c #F5E4EA",
"z. c #F5E6EB",
"x. c #F5E9EE",
"c. c #F6E9EE",
"v. c #F8EBEF",
"b. c #F7EFF4",
"n. c #F8EDF1",
"m. c #F6F0F4",
"M. c #F9F1F4",
"N. c #FAF2F5",
"B. c #FBF5F7",
"V. c #FCF6F8",
"C. c #FCF9FA",
"Z. c #FEFCFD",
"A. c #FFFEFF",
"S. c #FFFFFF",
/* pixels */
"%.%.%.%.%.%.%.%.%.%.%.%.%.%.%.&.%.%.%.%.%.%.%.%.%.%.%.&.%.%.%.%.%.%.&.&.&.&.&.=.%.%.%.%.%.&.%.&.=.&.=.=.%.%.=.=.=.=.%.&.=.&.=.=.",
"@.@.@.@.@.@.@.@.@.@.@.@.@.@.@.%.@.%.@.@.@.%.%.@.%.@.@.%.@.@.%.%.@.%.@.@.%.%.@.%.@.@.%.%.%.%.%.@.%.%.%.%.%.%.%.%.%.%.%.%.%.%.%.%.",
"O.O.O.O.@.@.O.O.O.O.O.O.O.O.O.O.O.O.O.%.@.@.O.@.O.@.@.O.@.O.O.@.@.@.O.O.O.O.O.@.@.@.@.%.%.O.O.@.@.O.@.O.@.@.@.O.@.@.@.O.@.O.@.@.",
"O.X.O.O.X.O.X.O.O.X.O.O.O.X.O.O.O.O.X.O.X.O.O.X.O.O.X.O.O.X.O.@.O.X.O.O.O.O.O.O.X.O.O.O.O.O.O.O.O.O.O.O.X.O.O.@.O.X.O.O.O.O.O.O.",
"X.X.X.X.X.X.X.X.X.X.X.X.X.X.X.X.X.X.X.X.X.X.X.X.X.X.X.X.X.X.X.X.X.X.X.X.X.X.X.X.X.X.X.X.X.| X.O.X.X.X.X.X.X.X.X.O.O.X.O.X.X.X.O.",
"| | | ` | | | ] X.X.` X.X.] ` X.| | | | | X.| | | X.X.X.X.X.| X.X.X.X.X.X.X.[ X.X.X.X.X.X.X.| X.X.X.X.X.X.X.X.X.` ` X.O.X.X.X.X.",
"` ` ` ` ` ` ` ` ` ` ` ` ` ` ` ` ` ` ` ` | ` ` ` ` ` ` ` ` ` ` ` ` ` ` ` ` ` ` X.` ` ` | ` | ` | ` | ` | | | | ` ` ` ` ` X.` ` ` ",
"` ` ` ` ` ` ` ` _ ` ` ` ` ` ` ` ` ` ` ` ` ` ` ` ` ` ` ` ` ` ` ` ` ` ` ` ` ` ` ` ` ` ` ` ` ` ` ' ` ` ` ` ` ` ` ` ` ` ` ` ` ` ` ` ",
") _ ) _ _ _ ) ) _ _ _ _ _ ) _ _ _ _ _ _ _ _ ) _ _ _ ` ) ) ) ` ] ) ` _ _ ) ` ) ` _ _ _ _ _ _ _ _ _ _ _ _ _ _ ` _ ` ` _ _ _ _ _ _ ",
") ) ) ) ) ) ) ) ) ) ) ) ) ) ) ) ) ) ) ) ) ) ) _ ) ) ) ` ` #.<.q.<.O.] ) ) ) ) ) ) ) ) _ ) ) _ _ ) _ ) _ _ _ ) _ _ ) _ ) _ _ _ _ ",
"~ ) ~ ~ ) ~ ~ ) ~ ~ ~ ~ ~ ~ ~ ~ ~ ~ ~ ~ ~ ~ ~ ) #.g.Z.Z.Z.Z.Z.Z.Z.Z.Z.Z.Z.z.<._ ) ~ ) ) ) ~ ~ ) ) ) ) ) ) ~ ) ~ ~ ) ) ) ) ) ) ~ ",
"~ ~ ~ Q ~ ~ ~ ~ ~ ~ ~ ~ ~ ~ ~ ~ ~ ~ ~ ~ ~ ~ i.Z.Z.Z.Z.Z.Z.Z.Z.Z.Z.Z.Z.Z.Z.Z.Z.Z.k._ ~ ~ ~ ~ ~ ) ~ ~ ~ ~ ~ ~ ~ ~ ~ ~ ~ ~ ~ ~ ~ ~ ",
"W Q Q Q Q Q Q Q Q ~ W ~ ~ ~ W Q Q Q Q ~ -.Z.Z.Z.Z.Z.Z.Z.Z.Z.Z.Z.Z.Z.Z.Z.Z.Z.Z.Z.Z.Z.i.~ Q Q Q Q Q Q Q Q ~ Q Q Q Q ~ Q ~ ~ ~ Q ~ ",
"W W W W W W W W W W W Q W W W W Q W W 7.Z.Z.Z.Z.Z.Z.Z.Z.Z.Z.Z.Z.Z.Z.Z.Z.Z.Z.Z.Z.Z.Z.Z.M.Q Q W ~ Q W Q Q W Q Q W W Q W Q Q W Q W ",
"L W W W W Y Y W Y Y W Y W Y Y W W W 5.Z.Z.Z.Z.Z.Z.Z.Z.Z.Z.Z.Z.Z.Z.Z.Z.Z.Z.Z.Z.Z.Z.Z.Z.Z.c.W W W W W W W W W W W W W W W W W Y W ",
"Y Y Y Y Y Y Y Y Y Y Y Y Y Y Y Y W ] Z.Z.Z.Z.Z.Z.Z.Z.Z.Z.V.k.f.u.g.k.M.Z.Z.Z.Z.Z.Z.Z.Z.Z.Z.j.L W Y Y Y Y W Y Y W Y Y W Y Y W Y Y ",
"L L L L L L L L W J J J W J J L L k.Z.Z.Z.Z.Z.Z.Z.V.,.L Y L L L L L L L #.M.Z.Z.Z.Z.Z.Z.Z.Z.] L L Y L Y L L L L L Y Y Y L L L Y ",
"G L L L G L J J G W J W J J W J ~ C.Z.Z.Z.Z.Z.Z.,.L K K J L L L K K K L K L #.Z.Z.Z.Z.Z.Z.Z.z.L L J J L L L L L L L L L L L J L ",
"G G G G J G J G J J J J J J J J a.Z.Z.Z.Z.Z.Z.t.G J J G G J J J K J J J J J K 4.Z.Z.Z.Z.Z.Z.Z.~ J J J J J J J J J J L J L J G L ",
"G G G G G G G G D G G G D G G G v.Z.Z.Z.Z.Z.n.J G G G G G G G G G J G J G G J D g.Z.Z.Z.Z.Z.Z.w.J G J J J G J G G G G G G G G G ",
"D D D D D D D G D D G G J D D D Z.Z.Z.Z.Z.Z.u.D D D D D D D D D D D D G D D J D J Z.Z.Z.Z.Z.Z.l.D D D D D D D D D G D G D G D G ",
"D A A D A A Z V D J n J n J n D Z.Z.Z.Z.Z.Z.+.D A A D D A D D D D D A D A A D D D M.Z.Z.Z.Z.Z.M.D D D D D D D D A D D D D D D A ",
"Z Z A A Z A Z Z D n n D D D D D Z.Z.Z.Z.Z.Z.8.D A A A Z A A D A A Z A A Z A A A A u.Z.Z.Z.Z.Z.Z.Z Z A D A D Z A A A A A A A A A ",
"A n Z n Z Z n Z D n D D n n D n C.Z.Z.Z.Z.Z.M.Z C Z Z Z Z Z Z Z Z Z Z Z Z Z Z Z Z W h.s.w.4.o.' Z Z Z Z Z Z Z A Z Z Z A Z Z Z Z ",
"n n A n n n n D n A n A n n n D c.Z.Z.Z.Z.Z.Z.u.C Z C C C C C C n Z Z n Z Z Z n n Z n n Z n Z n n n n n D n n n N n Z n A A n A ",
"n n n n n n n n n n n n n n n n 4.Z.Z.Z.Z.Z.Z.Z.h.F n C C C C C n n n n n n n n n n n Z n Z n n n A n n n n A n n n n n n n n n ",
"b n n n b n b n n n n n n n b b Z Z.Z.Z.Z.Z.Z.Z.Z.Z.l.{ C n n C n n n n n n n n n n n n n n n n n n n n n n n n n n n n n n n n ",
"b b n n b b b b b b n n b b b b b 8.Z.Z.Z.Z.Z.Z.Z.Z.Z.Z.Z.c.7./ n b b b n n n n n b b b n n n b n n n n n n b n n n n n n n n n ",
"z b z b v v b z z b c c b c c c z b j.Z.Z.Z.Z.Z.Z.Z.Z.Z.Z.Z.Z.Z.Z.n.t.( b v b v c b v b z b v v n b b v z n z n z b z b n b b v ",
"z z b z v z z v c c c c c c c c v z b c.Z.Z.Z.Z.Z.Z.Z.Z.Z.Z.Z.Z.Z.Z.Z.Z.Z.c.6.A c c c c b v c c b v c c v z b z b b v b c v c v ",
"z z z z z z z z z z z z z z z z z z z z 7.Z.Z.Z.Z.Z.Z.Z.Z.Z.Z.Z.Z.Z.Z.Z.Z.Z.Z.Z.M.4.c c z z z z z z z z z z z z z z z z z z c c ",
"z l l l l l l l l l l l l z l l l z l l x F c.Z.Z.Z.Z.Z.Z.Z.Z.Z.Z.Z.Z.Z.Z.Z.Z.Z.Z.Z.B.( z z z l z z z z l z z z z z z z z z x x ",
"g g g g g g g g g g g g g g f x g g g g g g x S u.C.Z.Z.Z.Z.Z.Z.Z.Z.Z.Z.Z.Z.Z.Z.Z.Z.Z.Z.z.b g l g x g l g g l g x g g g g z g g ",
"g f g f f g f g g f g g f g f x g g g g g g g f f f F 6.c.Z.Z.Z.Z.Z.Z.Z.Z.Z.Z.Z.Z.Z.Z.Z.Z.C.b l g f g g g g g g g g x g g g g g ",
"d f f f f f f f d f f f f f d f d f f f d f d f f f f f f f R 8.c.Z.Z.Z.Z.Z.Z.Z.Z.Z.Z.Z.Z.Z.M.x f f f f f g f f d f f f f f g f ",
"d d d d d d d d d d d d d d d d d d f d d d d d d d f d f f d f f f R r.B.Z.Z.Z.Z.Z.Z.Z.Z.Z.Z.s.d f d d d f d d d f f f f f f d ",
"s s s s s s s s s s s s s s d d s d s d s s d d d d s s f s s s s s s d f b r.Z.Z.Z.Z.Z.Z.Z.Z.Z.b d d d s d d s d s s d d s s d ",
"a s a s a s s s s s s s s a a s s a s a s s s a s s s s a a s s s s s s s s s x s.Z.Z.Z.Z.Z.Z.Z.w.s s s s s s s s s s s s d s s ",
"0 0 0 a 0 a 0 a a 0 0 0 a a a a a 0 a a a a a a a a a 9 a a a a a a a a a a a a a 5.Z.Z.Z.Z.Z.Z.V.a a a 0 a a s a a s a a s a a ",
"0 0 0 0 0 0 0 0 0 0 0 0 0 a F t.a.l.M.C.;.a 0 0 0 0 0 a 0 a 0 a 0 a 0 0 0 a 0 0 0 0 n.Z.Z.Z.Z.Z.Z.0 0 a 0 0 a 0 0 0 0 a 0 a 0 0 ",
"0 8 9 9 9 9 9 9 9 9 9 9 9 9 u.Z.Z.Z.Z.Z.z.9 9 9 8 0 9 9 9 9 9 9 9 9 9 9 9 9 9 9 9 9 T Z.Z.Z.Z.Z.Z.x 9 9 9 9 9 9 0 0 9 9 9 9 0 9 ",
"8 8 8 8 9 8 9 8 9 9 8 8 9 9 ;.Z.Z.Z.Z.Z.Z.9 9 9 8 8 9 9 9 9 9 9 9 9 9 9 9 9 9 9 9 9 a Z.Z.Z.Z.Z.Z.A 9 9 9 9 9 9 9 9 9 9 9 9 9 9 ",
"8 8 7 7 7 8 8 8 8 7 8 8 8 8 T Z.Z.Z.Z.Z.Z.F 8 8 8 8 8 7 8 8 8 8 8 8 8 8 8 8 8 8 8 8 a Z.Z.Z.Z.Z.Z.x 8 8 8 8 7 8 8 8 8 8 8 8 9 9 ",
"7 7 7 7 7 7 7 7 7 7 6 7 6 6 f Z.Z.Z.Z.Z.Z.k.6 6 7 7 7 7 7 8 5 6 8 6 8 6 7 7 7 6 7 7 S Z.Z.Z.Z.Z.Z.7 7 7 8 8 7 7 7 7 7 8 8 7 7 7 ",
"5 4 4 7 7 7 4 7 5 5 5 5 6 5 5 C.Z.Z.Z.Z.Z.Z.I 7 5 7 5 5 5 5 7 5 6 6 6 6 5 6 5 6 7 5 l.Z.Z.Z.Z.Z.C.6 6 6 7 7 4 7 5 7 7 7 7 7 7 7 ",
"4 7 4 7 4 4 7 4 4 5 5 5 5 5 5 } Z.Z.Z.Z.Z.Z.Z.H 5 7 5 5 5 5 5 7 5 5 5 5 5 5 5 5 5 P Z.Z.Z.Z.Z.Z.u.5 5 5 7 4 7 4 4 7 4 4 7 4 7 4 ",
"4 4 4 4 4 4 3 4 4 4 4 4 4 4 4 i Z.Z.Z.Z.Z.Z.Z.Z.[ 4 4 4 4 4 4 4 4 4 4 4 4 5 4 5 U Z.Z.Z.Z.Z.Z.Z.j 4 4 5 4 7 7 4 4 5 4 7 4 4 3 4 ",
"3 4 3 4 3 4 3 3 3 4 4 3 4 4 4 3 ,.Z.Z.Z.Z.Z.Z.Z.Z.m.P 4 4 4 3 4 3 4 4 4 4 3 j f.Z.Z.Z.Z.Z.Z.Z.g.4 4 4 4 3 4 3 3 4 4 4 4 4 4 4 4 ",
"3 2 2 2 2 2 2 2 < 2 2 2 2 2 2 2 4 n.Z.Z.Z.Z.Z.Z.Z.Z.Z.Z.g.^ N h 3 r k V 2.m.Z.Z.Z.Z.Z.Z.Z.Z.Z.k 1 4 1 3 3 3 3 3 3 3 3 3 3 3 3 4 ",
"1 ; < ; ; < < < ; < < < > > > > ; e M.Z.Z.Z.Z.Z.Z.Z.Z.Z.Z.Z.Z.Z.Z.Z.Z.Z.Z.Z.Z.Z.Z.Z.Z.Z.Z.Z.B 3 > < > > 1 1 1 1 1 1 2 1 2 2 3 ; ",
"- ; ; ; : : ; : : : ; : : : : ; : : u C.Z.Z.Z.Z.Z.Z.Z.Z.Z.Z.Z.Z.Z.Z.Z.Z.Z.Z.Z.Z.Z.Z.Z.Z.Z.! : > ; > ; ; ; ; ; ; ; ; ; ; ; ; ; ; ",
"- - - = - - - : - - - - - : : : : : : w i.Z.Z.Z.Z.Z.Z.Z.Z.Z.Z.Z.Z.Z.Z.Z.Z.Z.Z.Z.Z.Z.Z.Z.B : : : : : : : : : : : : : : : : : ; : ",
"* = = = = = = = = = = = = - = = = = = = = m m.Z.Z.Z.Z.Z.Z.Z.Z.Z.Z.Z.Z.Z.Z.Z.Z.Z.Z.Z.3., = = = = = - = - = - = - = : = = : = - = ",
"* * = & * * * = * = * * * * * = * * = = * = * M 3.m.Z.Z.Z.Z.Z.Z.Z.Z.Z.Z.Z.Z.Z.M. .y = = = = = = * = = = = = * = = = = = = = = = ",
"& & & & & & & & * * & * % * & * % * * * * * * * * * t E  .3.0.d.n.c.d.9...E q * * * * * * & * * * * * * * * * * * * * * * * * * ",
"% % % % & % % % % % % % % % % % % % % % % % % * % % % % % % % % # * % % % * % % % % % % & % % & % % & % % % % * & & % & & & & & ",
"$ $ $ $ $ $ $ $ $ $ $ $ $ $ $ $ $ $ $ $ $ $ $ $ $ $ $ % $ $ $ $ # $ % $ $ $ $ % $ $ $ % $ % $ % % % $ % $ % % % $ $ % % % % % $ ",
"# # # @ # # $ @ $ @ $ @ @ $ @ $ $ @ $ $ @ $ @ $ $ @ $ @ $ $ $ $ $ $ @ $ $ $ @ $ $ $ $ $ $ @ $ $ @ @ $ $ $ $ @ @ $ $ $ @ @ $ @ $ ",
"@ @ + @ @ @ @ @ @ + @ @ @ @ @ @ + @ @ + @ @ @ @ @ @ @ @ @ @ @ @ @ @ @ @ @ @ @ @ @ @ @ @ @ @ @ @ @ @ @ @ @ @ + + @ @ @ @ @ @ @ @ ",
"+ O + + + O + + + + + + + + + + + + + + + + + + + + + + + + + + + + + + + + + @ + + + + + + @ + @ @ + @ + @ + + @ @ @ @ @ @ @ @ ",
"o o o O O o O o o + o o o o o + o + o + o + o + + + o o + o o o + o o + + + o + + + + + + + + + + + + X + + + + X + + + + + X + ",
"X o o X o X X o X X o o X o o X o o X o o X o o X o o o o o o o X o o o o o o X X +   X X X   + X + X + X +   + X + X X + + + X ",
". . X . . . . . X X . X X . . X X . X . . . X X . X . . X X X X . X X X X X . X X X X X X X   X + X   X +   X X X X X +   +     ",
"                                                      .     .     . .   .         X                         X X           X     "
};
