/* XPM */
static char *_4f5014b464b4290c637a0213603dc19R9JcO36EPwWqZBMH[] = {
/* columns rows colors chars-per-pixel */
"64 64 151 2 ",
"   c #3E1636",
".  c #401637",
"X  c #441639",
"o  c #4C153C",
"O  c #51153F",
"+  c #561542",
"@  c #5B1444",
"#  c #601547",
"$  c #641449",
"%  c #6C144D",
"&  c #71134F",
"*  c #741351",
"=  c #7C1355",
"-  c #841457",
";  c #891657",
":  c #841558",
">  c #8E1758",
",  c #8F1858",
"<  c #911757",
"1  c #911857",
"2  c #931958",
"3  c #9C1B59",
"4  c #A41D59",
"5  c #A91E59",
"6  c #A6215C",
"7  c #AE205A",
"8  c #B3225A",
"9  c #B8255B",
"0  c #BA2A5F",
"q  c #882361",
"w  c #992360",
"e  c #9D3F75",
"r  c #A12F67",
"t  c #BA2D61",
"y  c #BB3365",
"u  c #BC3768",
"i  c #BD3B6A",
"p  c #C03B6C",
"a  c #BE416E",
"s  c #A94679",
"d  c #B64072",
"f  c #BF4571",
"g  c #BF4974",
"h  c #C04672",
"j  c #C04D77",
"k  c #C1547B",
"l  c #C2597E",
"z  c #A65385",
"x  c #B75885",
"c  c #AF618E",
"v  c #C15783",
"b  c #C35D81",
"n  c #CA5E85",
"m  c #C46385",
"M  c #C56788",
"N  c #CD678C",
"B  c #C66B8B",
"V  c #CB6A8E",
"C  c #C7718F",
"Z  c #CD6E92",
"A  c #C77490",
"S  c #C97593",
"D  c #C87A95",
"F  c #C4799D",
"G  c #CA7E98",
"H  c #D37F9E",
"J  c #B883A4",
"K  c #CA839B",
"L  c #CB899F",
"P  c #D2839F",
"I  c #CC8DA2",
"U  c #CD8AA9",
"Y  c #D484A1",
"T  c #D48BA5",
"R  c #D98AA7",
"E  c #D98DA9",
"W  c #CD93A6",
"Q  c #CE97A8",
"!  c #CF9CAC",
"~  c #D291A7",
"^  c #D790AA",
"/  c #DB93AD",
"(  c #D29DAE",
")  c #D89AAF",
"_  c #C396B3",
"`  c #CC98B5",
"'  c #D79DB1",
"]  c #DC9CB4",
"[  c #D0A1AF",
"{  c #D0A4B1",
"}  c #DBA4B7",
"|  c #D2ABB6",
" . c #D5A2BB",
".. c #DFA5BB",
"X. c #D3AFB9",
"o. c #DFACBD",
"O. c #D3B0B9",
"+. c #D3B1BA",
"@. c #D3B2BA",
"#. c #D3B3BB",
"$. c #D3B3BC",
"%. c #D3B4BC",
"&. c #E1A3BA",
"*. c #E2A9BE",
"=. c #D5ACC3",
"-. c #DCABC1",
";. c #DEB2C0",
":. c #DCB8CC",
">. c #E3AEC2",
",. c #E1B0C1",
"<. c #E4B2C5",
"1. c #E3B7C6",
"2. c #E7B7C8",
"3. c #E8B7C9",
"4. c #E7B9C9",
"5. c #E9BBCC",
"6. c #E4C0CC",
"7. c #E7C2CF",
"8. c #E7C6D3",
"9. c #EAC5D3",
"0. c #EBC8D5",
"q. c #E5CDDB",
"w. c #EDCED9",
"e. c #EECED9",
"r. c #EDD2DC",
"t. c #EFD7DF",
"y. c #F1D3DE",
"u. c #ECD7E2",
"i. c #EFDAE1",
"p. c #EDDCE6",
"a. c #F2DBE3",
"s. c #F2DDE4",
"d. c #F2E0E7",
"f. c #F4E0E7",
"g. c #F3E4E9",
"h. c #F3E5EA",
"j. c #F4E5EA",
"k. c #F6E5EB",
"l. c #F6E9EE",
"z. c #F8E9EF",
"x. c #F8ECF0",
"c. c #F9EDF1",
"v. c #FAF1F4",
"b. c #FAF2F5",
"n. c #FAF3F5",
"m. c #FBF5F7",
"M. c #FBF7F8",
"N. c #FCF6F9",
"B. c #FDF9FA",
"V. c #FEFCFD",
"C. c #FFFFFF",
/* pixels */
"@.@.@.@.@.@.@.@.@.@.$.$.@.$.@.$.$.$.@.@.$.@.X.$.$.@.@.$.$.@.$.@.@.@.X.$.$.@.@.$.#.#.#.#.#.#.#.#.#.%.%.%.@.@.%.%.%.%.$.$.%.$.$.%.",
"X.X.@.X.X.X.@.X.X.X.X.X.X.X.X.X.X.@.X.@.X.@.@.X.@.X.X.@.X.@.@.@.X.@.@.@.@.@.@.@.X.#.#.#.X.#.X.#.@.@.@.@.X.@.@.@.@.@.@.$.@.@.@.@.",
"| | | | | | | | | X.| | | X.| | | | | X.| | | | | | | | | | | | | | | | | | | | | X.| | | X.| | X.| X.| | @.| | | X.| | X.| | @.",
"| | { | | { | | | { { | { { | | | { | | | | | | | | | | | | | | | | | | | | | | | | | X.| | | | | | | | | | | | | | | | | | | | ",
"[ { { { { { { { { { { { { { { { { { { { { { { { { { { { { { { { { { { { { { { { { { | { { { { | { { { | { { { | { { { { { { { | ",
"[ [ [ ! [ [ [ ! [ [ [ ! [ [ [ [ [ [ [ { { [ [ { [ [ { [ { { { [ { { { { { { { { [ { [ [ { { [ [ [ [ { [ { { { { { { { { { { { { ",
"! ! ! ! ! ! ! ! ! ! ! ! ! ! ! [ ! ! ! ! ! [ ! ! [ [ ! ! ! ! [ [ ! ! ! [ ' ! ! ! ! ! [ ! ! [ ! [ [ [ ! [ [ ! [ ! [ [ [ [ ! [ ! [ ",
"! ! ! ! ! ! ! ! ! ! ! ! ! ! ! ! ! ! ! Q ! ! ! Q Q ! ! ! ! ! ! Q ! ! ! ! Q ! ! ! ! ! ! ! ! ! ! ! ! ! ! ! ! ! ! ! ! ! ! ! ! ! ! ! ",
"Q Q Q Q Q W Q W Q Q Q Q W Q Q Q Q Q Q Q Q Q Q Q Q Q ! W W ! W ! Q Q Q Q Q Q Q Q Q Q Q Q Q ! W ! Q ! W ! Q ! Q ! Q Q Q Q Q Q Q Q ",
"W W W W W W Q W W W W W W W W W W W W W W W W Q W W Q W W W W W W Q W Q W W Q W W Q W Q W W W W W W W W W W W W Q Q Q W Q Q Q Q ",
"L W W I I W g.g.g.g.d.I I I I I I I I I I W I I I I W I o.k.g.g.g.g.g.g.| W I I I W U W I W W W W W W W W ! g.g.g.g.g.W W W W W ",
"L L I I L L C.C.C.C.C.{ I I I I I I I I I I I I L I I W g.C.C.C.C.C.C.C.i.I I I I I I I I I I I I I I I I 8.C.C.C.C.C.I I I I I ",
"L L L L L L C.C.C.C.C.8.I L L L L L L L L L L L L L L L C.C.C.C.C.C.C.C.M.L L L L L L L L L L L L L L L I g.C.C.C.C.C.I K K I I ",
"K K K K K K C.C.C.C.C.g.K K K K L K K K K L K K K L L { C.C.C.C.C.C.C.C.C.W L L L L K L L L K L K L L L K M.C.C.C.C.C.K K I L K ",
"K K K K K K C.C.C.C.C.m.G K K G K K G K G K K K K K K e.C.C.C.C.C.C.C.C.C.6.K K K K G K G K G K K K K K I C.C.C.C.C.C.K K K K K ",
"D D K D G G C.C.C.C.C.C.I G G G G G D G G G G G D G G n.C.C.C.C.C.C.C.C.C.g.G G G G G G G K G G G K G G :.C.C.C.C.C.C.K D K G K ",
"D D D D D D C.C.C.C.C.C.;.D G D D D D D D D D G D D K C.C.C.C.C.C.C.C.C.C.C.D D D D D D G D D G D D D D s.C.C.C.C.C.M.G D D D G ",
"D C A D A D B.C.C.C.C.C.i.S A D D A D A S S D A A D ;.C.C.C.C.C.C.C.C.C.C.C.' D D D D S A D A D A D D D B.C.C.C.C.C.t.D D D D D ",
"C C C C C C g.C.C.C.C.C.n.A A A A A A A A A A A A A s.C.C.C.C.C.t.C.C.C.C.C.r.A A A A A A A A A A A A G C.C.C.C.C.C.} A D A C A ",
"C C C C C C 1.C.C.C.C.C.C.A B B B A B A C B C A C A M.C.C.C.C.B.~ C.C.C.C.C.n.C A C C A C A A C C A B o.C.C.C.C.C.C.A C C A C C ",
"B B B B B B G C.C.C.C.C.C.) B B B B B B B B B B B Y C.C.C.C.C.s.B C.C.C.C.C.C.D B B B B B B B B B C B t.C.C.C.C.C.l.C C B C B C ",
"B M M M M B B M.C.C.C.C.C.9.B B B M B B B B B B B 7.C.C.C.C.C.*.B s.C.C.C.C.C.,.B B B B B B B B B B B m.C.C.C.C.C.7.B B B B B B ",
"m m m m m m m t.C.C.C.C.C.l.m m m m m m M m m m m c.C.C.C.C.C.B m ,.C.C.C.C.C.s.m M M m m B m M m M B C.C.C.C.C.C.L M M M M M M ",
"m m m m m m m } C.C.C.C.C.C.m m m m m m m m m m M C.C.C.C.C.c.m m C C.C.C.C.C.C.m m m m m m m m m m } C.C.C.C.C.B.m m m m m m m ",
"l m l m l m l B C.C.C.C.C.C.G b b b b b b b m b ' C.C.C.C.C.9.m b m n.C.C.C.C.C.P b m b m b m b m b e.C.C.C.C.C.a.m m b m b m b ",
"l l l l l l l l n.C.C.C.C.C.<.b b l b b l l l b y.C.C.C.C.C.Y l b l e.C.C.C.C.C.8.b l b l b l b l b n.C.C.C.C.C...b b b b b b b ",
"k k l l k l l k 0.C.C.C.C.C.s.k l l l l l l k l N.C.C.C.C.C.l l l l E C.C.C.C.C.c.l l l l l l l l b C.C.C.C.C.C.m l l l l l l l ",
"k k k k k k k k T C.C.C.C.C.B.k k k k k k k k Z C.C.C.C.C.s.k l k k l C.C.C.C.C.C.n k l k l k k l ^ C.C.C.C.C.c.l k k k k l k l ",
"g g j k j j j k k C.C.C.C.C.C.m g g k g k g j <.C.C.C.C.C.*.k g g l k k.C.C.C.C.C.] k j g k k k g 9.C.C.C.C.C.0.k k g k k l k k ",
"g k j j j j j j j k.C.C.C.C.C.] k g j j g k j k.C.C.C.C.C.m j j j j g <.C.C.C.C.C.i.j j g j j j k c.C.C.C.C.C.Y g g k l g j j g ",
"g g g g g h g g h 3.C.C.C.C.C.e.g g g g g g j C.C.C.C.C.n.j g g j h g B C.C.C.C.C.B.g g g g g g j C.C.C.C.C.C.g g g g g g g g g ",
"g f a g a f f g f S C.C.C.C.C.n.g f f f g f Y C.C.C.C.C.0.h f h f h f f B.C.C.C.C.C.S g g g f h P C.C.C.C.C.k.g g g f g g g g g ",
"a a a a a f a f a f V.C.C.C.C.C.f f a f f h 0.C.C.C.C.C.Y f f f a a f a t.C.C.C.C.C.<.f a f a a 5.C.C.C.C.C.>.f a f f f a f a f ",
"i a i a i i i i i i a.C.C.C.C.C.H a i p i i c.C.C.C.C.V.f i i p a a i a E C.C.C.C.C.k.a i a h a l.C.C.C.C.C.n a a i i a a a a a ",
"u i i i u i i i i i &.C.C.C.C.C.4.i i i i k C.C.C.C.C.k.u i i i i i i i h C.C.C.C.C.C.p i i i i C.C.C.C.C.N.i i i i i i i i i i ",
"u u u u u u u i y i k C.C.C.C.C.l.i u u i ] C.C.C.C.C.>.u u u p i i u u i c.C.C.C.C.C.Z i i i Z C.C.C.C.C.y.i i i i i i u i i i ",
"y y y y y y y y y y y B.C.C.C.C.C.y y y y a.C.C.C.C.C.k u y y y y y y y y 2.C.C.C.C.C.<.u y y >.C.C.C.C.C.E y y u y u y y u y u ",
"y y t y t y y t y t y e.C.C.C.C.C.n y y y V.C.C.C.C.N.y t t y y y y y y y N C.C.C.C.C.k.y y y k.C.C.C.C.C.i y y y y y y y y y y ",
"0 0 t t 0 t 0 t t t t R C.C.C.C.C.&.t t Z C.C.C.C.C.e.t t t t t t t t t t t V.C.C.C.C.C.t t t V.C.C.C.C.c.t t t 0 y y t t y y 0 ",
"0 0 0 0 0 0 0 t 9 0 0 p C.C.C.C.C.y.0 0 3.C.C.C.C.V.Y t 0 0 0 t t t t 0 0 0 a.C.C.C.C.C.V t n C.C.C.C.C.3.t t t 0 0 t 0 0 t t 0 ",
"9 9 9 9 9 9 9 9 9 9 9 9 n.C.C.C.C.n.8 9 x.C.C.C.C.C.t 9 9 9 9 9 9 9 9 9 t 9 / V.C.C.C.C.>.9 &.C.C.C.C.C.N 9 9 9 0 9 9 9 9 0 9 0 ",
"8 8 8 8 9 9 9 8 8 8 9 8 5.C.C.C.C.C.t t V.C.C.C.C.l.9 9 9 9 9 9 9 9 9 9 9 9 i V.C.C.C.C.i.9 a.V.C.C.C.C.9 9 9 8 9 9 9 9 9 9 9 9 ",
"7 8 7 7 7 8 8 8 7 8 8 8 S C.C.C.C.C.V Z C.C.C.C.C.>.8 7 8 8 8 8 8 8 8 8 8 8 5 n.C.C.C.C.c.8 B.C.C.C.C.s.8 8 8 8 8 9 8 8 8 8 8 8 ",
"7 7 7 7 7 7 7 5 7 7 7 7 8 C.C.C.C.C...1.C.C.C.C.C.v 7 5 5 8 5 5 7 5 8 5 7 8 5 5.C.C.C.C.C.g C.C.C.C.C.' 8 8 8 7 7 7 7 7 8 7 8 8 ",
"4 4 4 5 4 4 4 4 4 5 4 4 4 k.C.C.C.C.i.k.C.C.C.C.N.5 5 5 5 5 5 4 5 5 4 5 5 5 5 Z C.C.C.C.C.>.C.C.C.C.C.i 5 5 5 7 5 7 5 5 6 7 5 5 ",
"4 4 4 4 4 4 4 4 4 4 4 4 4 -.C.C.C.C.N.C.C.C.C.C.r.4 4 4 4 4 4 4 4 4 4 4 4 4 4 4 C.C.C.C.C.M.C.C.C.C.M.4 4 6 4 4 4 4 4 6 4 4 4 4 ",
"3 3 3 3 3 3 3 3 3 3 3 3 3 x C.C.C.C.C.C.C.C.C.C.U 4 3 3 3 3 3 3 3 3 3 3 3 3 3 4 g.C.C.C.C.C.C.C.C.C.8.3 3 3 3 3 4 3 3 3 4 3 4 3 ",
"3 1 1 3 1 3 < 3 2 3 2 3 2 3 V.C.C.C.C.C.C.C.C.C.r 2 3 2 3 3 3 3 3 3 3 3 3 3 2 3  .C.C.C.C.C.C.C.C.C.F 3 3 3 3 3 3 3 3 3 3 3 3 3 ",
"1 < 1 < < 2 2 2 , 2 < 2 < 2 p.C.C.C.C.C.C.C.C.n.< 1 2 2 < 2 2 2 2 2 2 < 2 2 2 2 s C.C.C.C.C.C.C.C.C.w 2 2 2 2 2 2 2 2 2 2 2 2 2 ",
"; > > > ; , ; , , ; > > , ; ` C.C.C.C.C.C.C.C.:.> > > > > > > > > > > > > > > , > M.C.C.C.C.C.C.C.l.; , > 2 > < < 2 < < 2 2 < < ",
": > : ; : ; > : : : ; : ; : e C.C.C.C.C.C.C.C.c ; ; : ; ; ; ; ; ; ; ; ; ; ; ; ; : q.C.C.C.C.C.C.C.=.; ; > ; ; > ; ; > ; > > ; < ",
"- = - - - = - - - - - - - - - M.C.C.C.C.C.C.C.- = - ; : - : : : : : : : : : - - ; J C.C.C.C.C.C.C.z : : : : : : : : : : : : : : ",
"= = = = = = = = = = = = = = = q.C.C.C.C.C.C.p.= = = = = = = = = = = = = = = = = = q C.C.C.C.C.C.C.= = - = = = = = = - = = = - - ",
"* & = * = * = * * * = = * = = J C.C.C.C.C.C._ * = = = * = = = * = = = = = = = = = = k.C.C.C.C.C.u.= = = = = = = = = = = = = = = ",
"& & & & % & & & * * * % * % % * & * & & * * * * * & * * * * * * * * * * * * * = * * * * * = * * * * * * * * * * = * * * * * * * ",
"% % % % % % % % % % % % % % % % % % % % % % % & % % % % % % % % % % % % % % % % % % % % % % % % % % % % % & & & % % * % % * % % ",
"$ $ $ $ $ $ $ $ $ $ $ $ $ $ $ $ $ $ $ $ $ $ $ $ $ $ $ $ % $ % $ $ $ % $ $ % $ $ $ $ $ $ % $ $ % % $ $ % % $ $ $ % $ % $ % $ % $ ",
"# # # # # # # # $ @ $ @ # $ @ $ # # # $ # $ # $ $ # $ $ # # # # # $ # $ # $ $ # $ $ $ $ $ $ $ $ $ $ $ $ $ $ $ $ $ $ $ $ $ $ $ $ ",
"+ @ + + + @ + + @ + @ + + @ + @ @ @ + @ @ + @ @ @ @ @ @ + @ @ @ @ @ @ @ @ @ @ @ @ @ @ @ @ @ @ @ @ @ @ @ @ @ @ @ @ @ @ @ @ @ @ @ ",
"+ + + + + + + + + + + + + + + + + + + + + + + + + + + + + + + + + + + + + + + + + + + + + + @ + + + + + @ + + + + @ @ + @ + @ @ ",
"o o O o o o O o o o o o + o + o o O o o O o O o O o O o o O o o o o O O + o O + + + o + + + + + + + o + + + + + + + + + + + + o ",
"o X o o X o o o o o o o X o o X o X o o o o o o o o o o o o o o o o o o o o o o X + X o . o X o o o X o X + X o X o X + + X + X ",
"X   X X X . . . . X . X X . . X   X X X X X . X X X X X X X X X X X X X X X . X X X X X . X X X . o . X X X X X . X X X X X . X ",
"                                                          .   .   .     .   .     . . .   . . .   . . . X . .   . . . . X . .   "
};
